<?xml version="1.0" encoding="utf-8"?>
<!-- Generator: Adobe Illustrator 20.1.0, SVG Export Plug-In . SVG Version: 6.00 Build 0)  -->
<svg version="1.1" id="Layer_1" xmlns="http://www.w3.org/2000/svg" xmlns:xlink="http://www.w3.org/1999/xlink" x="0px" y="0px"
	 viewBox="0 0 54 22" style="enable-background:new 0 0 54 22;" xml:space="preserve">
<title>Fill 105</title>
<desc>Created with Sketch.</desc>
<g id="Page-1">
	<g id="apply" transform="translate(-549.000000, -271.000000)">
		<g id="Group-2" transform="translate(291.000000, 260.000000)">
			<g id="step" transform="translate(28.000000, 0.000000)">
				<path id="Fill-105" d="M280.7,21.1c-1.1-0.6-2.3-1.3-3.5-1.9c-3.6-1.8-7.2-3.6-10.8-5.3c-0.9-0.5-1.9-0.9-2.8-1.3
					c-0.2-0.1-0.5-0.3-0.6-0.5c-0.1-0.1-0.1-0.4,0-0.6c0.1-0.2,0.3-0.3,0.5-0.3c0.2-0.1,0.4,0,0.6,0c0.5,0.2,1,0.4,1.6,0.6
					c5.2,2.3,10.3,4.7,15.4,7.4c0.9,0.4,1.7,1,2.5,1.5c0.4,0.3,0.5,0.8,0.4,1.3c-0.3,0.7-0.7,1.2-1.4,1.4c-1.2,0.3-2.2,0.9-3.2,1.5
					c-1.9,1.1-3.8,2.2-5.7,3.4c-1.8,1.1-3.6,2.4-5.4,3.6c-0.4,0.3-0.8,0.5-1.3,0.7c-0.3,0.1-0.7-0.1-0.9-0.4c-0.1-0.3,0-0.5,0.1-0.8
					c0.1-0.2,0.3-0.3,0.5-0.4c2.2-1.6,4.3-3.3,6.6-4.7c2.5-1.5,5-3,7.5-4.5c0.1,0,0.1-0.1,0.1-0.2C280.8,21.3,280.8,21.1,280.7,21.1
					z M252,22.4c-2.1,0.1-4.2,0.2-6.2,0.3c-3.8,0.2-7.6,0.1-11.4,0.5c-1,0.1-2.1,0.1-3.1,0.1c-0.3,0-0.6-0.1-0.8-0.2
					c-0.2-0.1-0.3-0.3-0.3-0.5c-0.1-0.2,0.1-0.6,0.3-0.7c0.3-0.1,0.5-0.1,0.8-0.2c3-0.2,6.1-0.3,9.1-0.5c2.6-0.1,5.3-0.2,7.9-0.4
					c2.4-0.1,4.7-0.3,7.1-0.3c2.2,0,4.3-0.1,6.5-0.1c1.5,0,3.1-0.1,4.6-0.1c2.2,0,4.4,0.1,6.7,0.2c0.2,0,0.4,0.1,0.6,0.2
					c0.2,0.1,0.4,0.6,0.4,0.9c-0.1,0.3-0.2,0.5-0.5,0.6c-0.3,0.1-0.7,0.1-1,0.1c-3.7-0.3-7.4-0.1-11-0.1
					C258.2,22.3,255.1,22.3,252,22.4C252,22.4,252,22.4,252,22.4z"/>
			</g>
		</g>
	</g>
</g>
</svg>
