<?xml version="1.0" encoding="utf-8"?>
<!-- Generator: Adobe Illustrator 20.1.0, SVG Export Plug-In . SVG Version: 6.00 Build 0)  -->
<svg version="1.1" id="Layer_1" xmlns="http://www.w3.org/2000/svg" xmlns:xlink="http://www.w3.org/1999/xlink" x="0px" y="0px"
	 viewBox="0 0 50 70" style="enable-background:new 0 0 50 70;" xml:space="preserve">
<title>FIll 104</title>
<desc>Created with Sketch.</desc>
<g id="Page-1">
	<g id="apply" transform="translate(-1080.000000, -312.000000)">
		<g id="Group-2" transform="translate(291.000000, 260.000000)">
			<path id="FIll-104" d="M832.6,52c-0.6,0-1.1,0.4-1,0.8c0.1,0.3,0.1,0.7,0.2,1c0.3,0.7,0.6,1.3,0.9,1.9c2.2,4.4,3.1,9,3.8,13.8
				c0.5,3.5,0.2,7.1-0.7,10.6c-0.4,1.8-1,3.6-1.6,5.4c-1,3.1-2.8,5.8-4.7,8.3c-2.5,3.4-5.6,6.2-8.9,8.9c-3.5,2.8-7.4,5.1-11.3,7.2
				c-3.5,1.8-7.1,3.5-10.8,4.9c-0.6,0.2-1.1,0.5-1.7,0.8c-0.2,0.1-0.4,0.7-0.2,1c0.1,0.2,0.4,0.4,0.6,0.5c0.2,0.1,0.5,0,0.8,0
				c0.5-0.1,1-0.3,1.5-0.5c4.4-1.8,8.8-3.6,12.9-6c1.9-1.1,3.9-2.3,5.7-3.5c1.6-1.1,3.2-2.3,4.7-3.5c3.2-2.6,6.1-5.5,8.5-8.8
				c3.1-4.2,5.1-8.9,6.2-14c0.5-2.4,0.7-4.7,1-7.1c0.2-1.9-0.2-3.7-0.5-5.6c-0.7-5-2.1-9.9-4.4-14.4c-0.2-0.4-0.4-0.8-0.7-1.1
				C833,52.1,832.7,52.1,832.6,52z M798.1,121.9c1.3-0.1,2.5-0.2,3.8-0.3c1.2-0.1,2.3-0.2,3.5-0.3c4.7-0.4,9.3-1.3,13.5-3.6
				c0.4-0.2,0.8-0.5,1.1-0.7c0.2-0.2,0.3-0.7,0.1-1c-0.2-0.3-0.5-0.6-0.9-0.5c-0.3,0.1-0.7,0.2-1,0.3c-4,2.2-8.4,3.1-12.9,3.5
				c-4,0.3-7.9,0.7-11.9,0.2c-0.4,0-0.7-0.1-1-0.3c-0.1,0-0.3-0.3-0.2-0.4c0.2-0.4,0.4-0.8,0.7-1.1c3.7-5.5,7.6-10.8,10.7-16.6
				c0.6-1.2,1.2-2.4,1.4-3.7c0-0.3,0.1-0.5,0-0.8c-0.1-0.4-0.4-0.6-0.7-0.7c-0.2,0-0.5,0.1-0.7,0.3c-0.2,0.2-0.4,0.4-0.4,0.7
				c-0.6,2.5-2.1,4.7-3.4,6.9c-1.8,3.1-3.8,6-5.9,8.9c-1.3,1.9-2.6,3.9-4,5.7c-0.3,0.4-0.6,0.9-0.8,1.4c-0.2,0.4,0.1,0.9,0.5,1.1
				c0.2,0.1,0.5,0.2,0.8,0.3C792.9,121.4,795.5,121.9,798.1,121.9z"/>
		</g>
	</g>
</g>
</svg>
