<?xml version="1.0" encoding="utf-8"?>
<!-- Generator: Adobe Illustrator 20.1.0, SVG Export Plug-In . SVG Version: 6.00 Build 0)  -->
<svg version="1.1" id="Layer_1" xmlns="http://www.w3.org/2000/svg" xmlns:xlink="http://www.w3.org/1999/xlink" x="0px" y="0px"
	 viewBox="0 0 130 115" style="enable-background:new 0 0 130 115;" xml:space="preserve">
<style type="text/css">
	.st0{fill:#EDF2EF;}
	.st1{fill:#3B4340;}
	.st2{fill:#F6A623;}
	.st3{fill:#FCFCFC;}
</style>
<title>:D</title>
<desc>Created with Sketch.</desc>
<g id="Page-1">
	<g id="Contact" transform="translate(-370.000000, -232.000000)">
		<g id=":D" transform="translate(370.000000, 232.000000)">
			<ellipse id="shadow" class="st0" cx="60.9" cy="110.4" rx="60.9" ry="4.6"/>
			<path id="Shape" class="st1" d="M73.1,93L43.9,63.8c-0.6-0.6-1.6-0.6-2.2,0c-0.6,0.6-0.6,1.6,0,2.1l30.2,30.1
				c0.3,0.3,0.8,0.5,1.2,0.4c0.4,0,0.9-0.1,1.2-0.4L104.5,66c0.6-0.6,0.6-1.6,0-2.1c-0.6-0.6-1.6-0.6-2.2,0L73.1,93L73.1,93z
				 M35.5,63.3c0-3.4,2.7-6.1,6.1-6.1h63.5c3.4,0,6.1,2.7,6.1,6.1v33.4c0,7.3-5.9,13.2-13.2,13.2H48.7c-7.3,0-13.2-5.9-13.2-13.2
				V63.3L35.5,63.3z M38.6,96.8c0,5.6,4.5,10.1,10.2,10.1H98c5.6,0,10.2-4.5,10.2-10.1V63.3c0-1.7-1.4-3-3-3H41.6c-1.7,0-3,1.4-3,3
				V96.8L38.6,96.8z M10.2,11.1h3h31.7h22.6c6.7,0,12.2,5.4,12.2,12.2v28.4c0,0.8-0.7,1.5-1.5,1.5s-1.5-0.7-1.5-1.5l0,0V23.3
				c0-5-4.1-9.1-9.1-9.1H44.9H17.2c1.6,1.7,2.6,4,2.6,6.6v3h-3H3.6h-3v-3C0.5,15.5,4.8,11.1,10.2,11.1L10.2,11.1L10.2,11.1z
				 M24.9,98.3c-4.5,0-8.1-3.5-8.1-7.8v-2.7v-64h3v64v2.7c0,2.7,2.3,4.9,5.1,4.9h2.5c0.2-0.1,0.4-0.1,0.6-0.1c0.8,0,1.5,0.7,1.5,1.5
				c0,0.8-0.7,1.5-1.5,1.5H24.9z M68.6,44.6c0,0.8-0.7,1.5-1.5,1.5H39.6c-0.8,0-1.5-0.7-1.5-1.5c0-0.8,0.7-1.5,1.5-1.5H67
				C67.9,43.1,68.6,43.7,68.6,44.6L68.6,44.6z M68.6,33.9c0,0.8-0.7,1.5-1.5,1.5H29.4c-0.8,0-1.5-0.7-1.5-1.5c0-0.8,0.7-1.5,1.5-1.5
				H67C67.9,32.4,68.6,33.1,68.6,33.9L68.6,33.9z M3.6,20.8h13.2c0-3.6-3-6.6-6.6-6.6S3.6,17.1,3.6,20.8L3.6,20.8z"/>
			<path id="Rectangle-20" class="st2" d="M112.6,40.3c9.8-1.4,17.4-9.8,17.4-20.1C130,9.1,120.9,0,109.7,0h-5.2
				C93.4,0,84.3,9.1,84.3,20.3c0,10.2,7.6,18.7,17.4,20.1l1.2,1.2c2.3,2.3,6.1,2.3,8.5,0L112.6,40.3z M117.3,22.8
				c1.4,0,2.5-1.1,2.5-2.5c0-1.4-1.1-2.5-2.5-2.5s-2.5,1.1-2.5,2.5C114.8,21.7,115.9,22.8,117.3,22.8z M107.1,22.8
				c1.4,0,2.5-1.1,2.5-2.5c0-1.4-1.1-2.5-2.5-2.5s-2.5,1.1-2.5,2.5C104.6,21.7,105.7,22.8,107.1,22.8z M97,22.8
				c1.4,0,2.5-1.1,2.5-2.5c0-1.4-1.1-2.5-2.5-2.5s-2.5,1.1-2.5,2.5C94.5,21.7,95.6,22.8,97,22.8z"/>
			<circle class="st3" cx="97" cy="20.3" r="2.5"/>
			<circle class="st3" cx="107" cy="20.3" r="2.5"/>
			<circle class="st3" cx="117.3" cy="20.3" r="2.5"/>
		</g>
	</g>
</g>
</svg>
