<?xml version="1.0" encoding="utf-8"?>
<!-- Generator: Adobe Illustrator 20.1.0, SVG Export Plug-In . SVG Version: 6.00 Build 0)  -->
<svg version="1.1" id="Layer_1" xmlns="http://www.w3.org/2000/svg" xmlns:xlink="http://www.w3.org/1999/xlink" x="0px" y="0px"
	 viewBox="0 0 238 196" style="enable-background:new 0 0 238 196;" xml:space="preserve">
<style type="text/css">
	.st0{fill:#EDF2EF;}
	.st1{fill:#3B4340;}
	.st2{fill:#D0011B;}
	.st3{fill:#FFFFFF;}
</style>
<title>:D</title>
<desc>Created with Sketch.</desc>
<g id="Page-1">
	<g id="Eror" transform="translate(-493.000000, -269.000000)">
		<g id=":D" transform="translate(493.000000, 269.000000)">
			<ellipse id="shadow" class="st0" cx="110.3" cy="187.7" rx="110.3" ry="8.3"/>
			<path id="Shape" class="st1" d="M22.1,125.4V174c0,3,2.5,5.5,5.5,5.5H193c3.1,0,5.5-2.5,5.5-5.5v-23c0-1.5,1.2-2.8,2.8-2.8
				c1.5,0,2.8,1.2,2.8,2.8v23c0,6.1-4.9,11-11,11H27.6c-6.1,0-11-4.9-11-11v-55.2c0-0.7,0.3-1.4,0.8-2c1.1-1.1,2.8-1.1,3.9,0
				l17.9,17.9l17.9-17.9c0.6-0.6,1.5-0.9,2.3-0.8c0.8-0.1,1.7,0.2,2.3,0.8l17.9,17.9l17.9-17.9c0.6-0.6,1.5-0.9,2.3-0.8
				c0.8-0.1,1.7,0.2,2.3,0.8l17.9,17.9l17.9-17.9c0.6-0.6,1.5-0.9,2.3-0.8c0.8-0.1,1.7,0.1,2.3,0.8l13.2,13.2c1.1,1.1,1.1,2.8,0,3.9
				c-1.1,1.1-2.8,1.1-3.9,0l-11.6-11.6l0,0l-17.9,17.9c-0.6,0.6-1.5,0.9-2.3,0.8c-0.8,0.1-1.7-0.2-2.3-0.8l-17.9-17.9l-17.9,17.9
				c-0.6,0.6-1.5,0.9-2.3,0.8c-0.8,0.1-1.7-0.2-2.3-0.8l-17.9-17.9l-17.9,17.9c-0.6,0.6-1.5,0.9-2.3,0.8c-0.8,0.1-1.7-0.2-2.3-0.8
				L22.1,125.4z M22.1,94.6V11c0-3,2.5-5.5,5.5-5.5H193c3.1,0,5.5,2.5,5.5,5.5v57.1c0,1.5,1.2,2.8,2.8,2.8c1.5,0,2.8-1.2,2.8-2.8V11
				c0-6.1-4.9-11-11-11H27.6c-6.1,0-11,4.9-11,11v84.7l0,0l0,0c0,0.7,0.3,1.4,0.8,2l19.5,19.5c0.6,0.6,1.5,0.9,2.3,0.8
				c0.8,0.1,1.7-0.2,2.3-0.8l17.9-17.9l17.9,17.9c0.6,0.6,1.5,0.9,2.3,0.8c0.8,0.1,1.7-0.2,2.3-0.8l17.9-17.9l17.9,17.9
				c0.6,0.6,1.5,0.9,2.3,0.8c0.8,0.1,1.7-0.2,2.3-0.8l17.9-17.9l17.9,17.9c0.6,0.6,1.5,0.9,2.3,0.8c0.8,0.1,1.7-0.1,2.3-0.8l7.8-7.8
				c1.1-1.1,1.1-2.8,0-3.9s-2.8-1.1-3.9,0l-6.2,6.2l0,0l-17.9-17.9c-0.6-0.6-1.5-0.9-2.3-0.8c-0.8-0.1-1.7,0.2-2.3,0.8L120,111.7
				l-17.9-17.9c-0.6-0.6-1.5-0.9-2.3-0.8c-0.8-0.1-1.7,0.2-2.3,0.8l-17.9,17.9L61.7,93.8c-0.6-0.6-1.5-0.9-2.3-0.8
				c-0.8-0.1-1.7,0.2-2.3,0.8l-17.9,17.9L22.1,94.6z M34.9,22.1c2,0,3.7-1.6,3.7-3.7s-1.6-3.7-3.7-3.7c-2,0-3.7,1.6-3.7,3.7
				S32.9,22.1,34.9,22.1z M49.6,22.1c2,0,3.7-1.6,3.7-3.7s-1.6-3.7-3.7-3.7c-2,0-3.7,1.6-3.7,3.7S47.6,22.1,49.6,22.1z M64.3,22.1
				c2,0,3.7-1.6,3.7-3.7s-1.6-3.7-3.7-3.7s-3.7,1.6-3.7,3.7S62.3,22.1,64.3,22.1z M86.4,18.4c0-1.5,1.2-2.8,2.8-2.8h95.6
				c1.5,0,2.8,1.2,2.8,2.8c0,1.5-1.2,2.8-2.8,2.8H89.1C87.6,21.2,86.4,19.9,86.4,18.4z"/>
			<g id="Triangle-1-_x2B_-Rectangle-270-_x2B_-Oval-106" transform="translate(164.486486, 80.056338)">
				<path id="Triangle-1" class="st2" d="M29.9,5.5c3.8-6.1,10-6.1,13.8,0l27.6,44.2c3.8,6.1,1.1,11-6.1,11H8.4
					c-7.2,0-9.9-4.9-6.1-11L29.9,5.5z M33.1,19.3c0-1.5,1.2-2.7,2.8-2.7c1.5,0,2.8,1.2,2.8,2.7v22.1c0,1.5-1.2,2.7-2.8,2.7
					c-1.5,0-2.8-1.2-2.8-2.7V19.3z M35.8,53.4c1.5,0,2.8-1.2,2.8-2.8s-1.2-2.8-2.8-2.8S33,49,33,50.6S34.3,53.4,35.8,53.4z"/>
			</g>
		</g>
	</g>
	<path class="st3" d="M200.3,96.7L200.3,96.7c-1.5,0-2.8,1.3-2.8,2.8v21.9c0,1.5,1.3,2.8,2.8,2.8l0,0c1.5,0,2.8-1.3,2.8-2.8V99.5
		C203.1,97.9,201.8,96.7,200.3,96.7z"/>
</g>
</svg>
