<?xml version="1.0" encoding="utf-8"?>
<!-- Generator: Adobe Illustrator 20.1.0, SVG Export Plug-In . SVG Version: 6.00 Build 0)  -->
<svg version="1.1" id="Layer_1" xmlns="http://www.w3.org/2000/svg" xmlns:xlink="http://www.w3.org/1999/xlink" x="0px" y="0px"
	 viewBox="0 0 100 100" style="enable-background:new 0 0 100 100;" xml:space="preserve">
<style type="text/css">
	.st0{fill:#FFFFFF;}
</style>
<path id="Facebook" class="st0" d="M91.3,86.8c0,2.5-2,4.6-4.6,4.6H65.7v-32h10.7l1.6-12.5H65.7v-8c0-3.6,1-6.1,6.2-6.1l6.6,0V21.7
	c-1.1-0.2-5.1-0.5-9.6-0.5c-9.5,0-16,5.8-16,16.5v9.2H42.1v12.5h10.8v32H13.2c-2.5,0-4.6-2-4.6-4.6V13.2c0-2.5,2-4.6,4.6-4.6h73.5
	c2.5,0,4.6,2,4.6,4.6V86.8"/>
</svg>
