<svg id="Layer_1" data-name="Layer 1" xmlns="http://www.w3.org/2000/svg" viewBox="0 0 562 278"><defs><style>.cls-1,.cls-3,.cls-4{fill:none;stroke:#1a1a1a;stroke-miterlimit:10;}.cls-1{stroke-width:2px;}.cls-2,.cls-5,.cls-7{fill:#1a1a1a;}.cls-3{stroke-width:3px;}.cls-4{stroke-width:4px;}.cls-5{font-size:108px;font-family:Impact, Impact;}.cls-6{font-size:85px;fill:#ed1c24;font-family:PainterPERSONALUSEONLY, Painter PERSONAL USE ONLY;}.cls-7{font-size:66.41px;font-family:FontAwesome, FontAwesome;}</style></defs><title>logo2</title><circle class="cls-1" cx="41.42" cy="99.89" r="10.27"/><circle class="cls-1" cx="41.42" cy="99.89" r="16.9"/><circle class="cls-1" cx="41.42" cy="99.89" r="22.61"/><circle class="cls-1" cx="41.42" cy="99.89" r="27.79"/><circle class="cls-1" cx="98.27" cy="99.89" r="10.27"/><circle class="cls-1" cx="98.27" cy="99.89" r="16.9"/><circle class="cls-1" cx="98.27" cy="99.89" r="22.61"/><circle class="cls-1" cx="98.27" cy="99.89" r="27.79"/><circle class="cls-2" cx="41.44" cy="99.88" r="4.57"/><circle class="cls-2" cx="98.29" cy="99.88" r="4.57"/><path class="cls-3" d="M22.46,149.1S47.81,170.29,73,149c0,0,20.94,23.2,52.29,0"/><path class="cls-3" d="M29.67,164.79s22.54,21.18,46.27-.05c0,0,19.75,23.2,49.31,0"/><path class="cls-3" d="M39.47,181.45s20.3,21.18,41.57-.05c0,0,17.7,23.2,44.21,0"/><path class="cls-3" d="M61.37,119.64s4.35,11.11,8.3,12.74c0,0,3.56.33,8.69-12.74"/><path class="cls-4" d="M13.83,95.63,13.5,58.54s13.66-2,27.33,8.13c0,0,26.68-19.52,57.59,0,0,0,12.36-11.06,27.65-7.81l-.81,157.63C10.56,223.49,13.81,95.3,13.81,95.3"/><text class="cls-5" transform="translate(166.1 148.6)">GEORGIA</text><text class="cls-6" transform="translate(150 217)">apply</text><text class="cls-7" transform="matrix(-0.99, -0.13, -0.13, 0.99, 547.25, 84.22)"></text></svg>