<?xml version="1.0" encoding="utf-8"?>
<!-- Generator: Adobe Illustrator 20.1.0, SVG Export Plug-In . SVG Version: 6.00 Build 0)  -->
<svg version="1.1" id="Layer_1" xmlns="http://www.w3.org/2000/svg" xmlns:xlink="http://www.w3.org/1999/xlink" x="0px" y="0px"
	 viewBox="0 0 562 278" style="enable-background:new 0 0 562 278;" xml:space="preserve">
<style type="text/css">
	.st0{fill:#FFFFFF;}
	.st1{font-family:'Impact';}
	.st2{font-size:108px;}
</style>
<path class="st0" d="M41.4,111.2c-6.2,0-11.3-5.1-11.3-11.3s5.1-11.3,11.3-11.3s11.3,5.1,11.3,11.3S47.6,111.2,41.4,111.2z
	 M41.4,90.6c-5.1,0-9.3,4.2-9.3,9.3s4.2,9.3,9.3,9.3s9.3-4.2,9.3-9.3S46.5,90.6,41.4,90.6z"/>
<path class="st0" d="M41.4,117.8c-9.9,0-17.9-8-17.9-17.9S31.5,82,41.4,82s17.9,8,17.9,17.9C59.3,109.8,51.3,117.8,41.4,117.8z
	 M41.4,84c-8.8,0-15.9,7.1-15.9,15.9s7.1,15.9,15.9,15.9s15.9-7.1,15.9-15.9S50.2,84,41.4,84z"/>
<path class="st0" d="M41.4,123.5c-13,0-23.6-10.6-23.6-23.6s10.6-23.6,23.6-23.6S65,86.9,65,99.9S54.4,123.5,41.4,123.5z M41.4,78.3
	c-11.9,0-21.6,9.7-21.6,21.6s9.7,21.6,21.6,21.6S63,111.8,63,99.9S53.3,78.3,41.4,78.3z"/>
<path class="st0" d="M41.4,128.7c-15.9,0-28.8-12.9-28.8-28.8s12.9-28.8,28.8-28.8S70.2,84,70.2,99.9S57.3,128.7,41.4,128.7z
	 M41.4,73.1c-14.8,0-26.8,12-26.8,26.8s12,26.8,26.8,26.8s26.8-12,26.8-26.8S56.2,73.1,41.4,73.1z"/>
<path class="st0" d="M98.3,111.2c-6.2,0-11.3-5.1-11.3-11.3s5.1-11.3,11.3-11.3s11.3,5.1,11.3,11.3S104.5,111.2,98.3,111.2z
	 M98.3,90.6c-5.1,0-9.3,4.2-9.3,9.3s4.2,9.3,9.3,9.3s9.3-4.2,9.3-9.3S103.4,90.6,98.3,90.6z"/>
<path class="st0" d="M98.3,117.8c-9.9,0-17.9-8-17.9-17.9S88.4,82,98.3,82s17.9,8,17.9,17.9C116.2,109.8,108.1,117.8,98.3,117.8z
	 M98.3,84c-8.8,0-15.9,7.1-15.9,15.9s7.1,15.9,15.9,15.9s15.9-7.1,15.9-15.9S107,84,98.3,84z"/>
<path class="st0" d="M98.3,123.5c-13,0-23.6-10.6-23.6-23.6s10.6-23.6,23.6-23.6s23.6,10.6,23.6,23.6S111.3,123.5,98.3,123.5z
	 M98.3,78.3c-11.9,0-21.6,9.7-21.6,21.6s9.7,21.6,21.6,21.6s21.6-9.7,21.6-21.6S110.2,78.3,98.3,78.3z"/>
<path class="st0" d="M98.3,128.7c-15.9,0-28.8-12.9-28.8-28.8s12.9-28.8,28.8-28.8s28.8,12.9,28.8,28.8
	C127.1,115.8,114.1,128.7,98.3,128.7z M98.3,73.1c-14.8,0-26.8,12-26.8,26.8s12,26.8,26.8,26.8s26.8-12,26.8-26.8
	S113,73.1,98.3,73.1z"/>
<circle class="st0" cx="41.4" cy="99.9" r="4.6"/>
<circle class="st0" cx="98.3" cy="99.9" r="4.6"/>
<path class="st0" d="M97.9,160.8c-13.1,0-22.1-7.1-25-9.7c-25.5,20.4-51.1-0.6-51.4-0.8l1.9-2.3c1,0.8,24.7,20.1,48.6,0l1.1-0.9
	l1,1.1c0.8,0.9,20.4,21.9,50.3-0.2l1.8,2.4C115.5,158.2,105.9,160.8,97.9,160.8z"/>
<path class="st0" d="M99.4,176.5c-12.3,0-20.7-7-23.6-9.7c-24.1,20.3-47-0.7-47.2-0.9l2.1-2.2c0.9,0.8,21.8,20,44.2-0.1l1.1-1l1,1.2
	c0.8,0.9,19.2,21.8,47.2-0.2l1.9,2.4C116.1,173.8,107,176.5,99.4,176.5z"/>
<path class="st0" d="M102,193.2c-0.9,0-1.8,0-2.6-0.1c-9.6-1-16-6.9-18.4-9.5c-6.3,5.9-13.2,8.8-20.4,8.8
	c-12.6-0.1-21.7-9.5-22.1-9.9l2.2-2.1c0.1,0.1,8.6,8.8,20,8.9c0.1,0,0.1,0,0.2,0c6.8,0,13.2-3,19.2-9l1.2-1.2l1,1.4
	c0.1,0.1,6.7,8.5,17.5,9.6c7.9,0.8,16.2-2.5,24.5-9.8l2,2.3C118.1,189.6,110,193.2,102,193.2z"/>
<path class="st0" d="M69.7,133.9c-0.1,0-0.1,0-0.2,0h-0.2l-0.2-0.1c-4.3-1.8-8.4-11.6-9.1-13.6l2.8-1.1c1.5,3.9,4.7,10.2,7.1,11.7
	c0.8-0.4,3.5-2.4,7.1-11.7l2.8,1.1C74.8,132.7,71,133.9,69.7,133.9z M69.6,130.9L69.6,130.9L69.6,130.9z"/>
<path class="st0" d="M116.4,218.8c-28.2,0-51.2-8.5-68.7-25.4c-37-35.7-35.9-97.5-35.9-98.1l0,0l-0.3-38.4l1.7-0.2
	c0.6-0.1,13.9-1.8,27.7,7.7c5.7-3.5,30-16.5,57.4,0c3.6-2.8,14.7-10.2,28.2-7.3l1.6,0.3l-0.8,161.1l-1.9,0.1
	C122.3,218.7,119.3,218.8,116.4,218.8z M15.8,95.6c0,4.4,0.1,61.6,34.7,94.9c18.1,17.4,42.6,25.5,72.8,24.1l0.8-154.1
	c-13.4-2-24.2,7.5-24.3,7.6l-1.1,1l-1.3-0.8c-29.5-18.5-55.1-0.2-55.4,0l-1.2,0.9l-1.2-0.9c-10-7.4-20.2-8-24.1-7.9L15.8,95.6
	L15.8,95.6z"/>
<text transform="matrix(1 0 0 1 166.1021 148.5991)" class="st0 st1 st2">GEORGIA</text>
<g>
	<path class="st0" d="M192,179.6c-0.6,0.9-1.4,2-2.3,3.3c-0.9,1.4-1.8,2.8-2.8,4.4c-1,1.6-1.9,3.2-2.8,4.9c-0.9,1.7-1.8,3.3-2.5,4.8
		c-1.5,3.2-2.7,5.8-3.6,8c-0.8,2.2-1.1,3.5-0.7,4.2c0.2,0.3,0.5,0.4,0.9,0.4s0.9-0.1,1.4-0.3s1-0.4,1.4-0.6c0.4-0.3,0.7-0.4,0.9-0.6
		c1.2-0.8,2.4-1.7,3.3-2.8c1-1,1.9-2.1,2.7-3.3c0.8-1.1,1.6-2.2,2.3-3.4s1.4-2.4,2-3.5c0.7-0.2,1.3-0.2,1.7,0c0.5,0.2,0.8,0.6,1,1.4
		c-0.8,1.5-1.6,2.9-2.3,4.3c-0.7,1.4-1.6,2.8-2.5,4.2s-1.9,2.7-2.8,3.9c-1,1.2-2.1,2.4-3.2,3.6c-1.1,1.1-2.3,2-3.5,2.8
		c-1.3,0.8-2.7,1.2-4.3,1.1c-1.6,0-3-0.5-4.3-1.4c-1.2-0.9-2.2-2.1-2.7-3.6c-0.3-0.7-0.5-1.4-0.6-2.3c-0.9,1.3-1.9,2.5-2.9,3.6
		s-2.2,2-3.5,2.7c-1.8,1-3.7,1.4-5.7,1.3c-2-0.2-3.7-0.9-5.2-2.3c-1.4-1.3-2.4-2.8-2.9-4.6s-0.8-3.6-0.8-5.4
		c0.1-2.3,0.4-4.5,1.1-6.7s1.6-4.3,2.7-6.4c1.1-2,2.4-4,3.8-5.7c1.4-1.8,3-3.4,4.6-4.9s3.4-2.7,5.4-3.6c2-0.9,4.1-1.3,6.2-1.2
		c2.1,0.1,3.9,0.8,5.5,1.9c1.6,1.2,2.7,2.7,3.5,4.6c0.7-0.8,1.5-1.5,2.3-2.2c0.9-0.7,1.8-1.1,2.8-1.5s2.1-0.6,3.3-0.5
		C190.3,178.6,191.3,178.9,192,179.6z M165.1,202.9c2.6-1.8,4.8-4.1,6.9-7c2-2.8,3.4-5.8,4-9c0.3-1.2,0.3-2.4-0.1-3.5
		c-0.3-1.2-1.2-1.9-2.6-2.1c-1.1-0.2-2.2,0.1-3.1,0.7c-1,0.6-1.8,1.3-2.6,2c-2.4,2.4-4.4,5.1-5.9,8.2c-1.5,3.1-2.6,6.2-3.4,9.5
		c-0.7,3.3-0.6,5.5,0.5,6.5c1,1,2.5,1.1,4.3,0.1c1.2-0.6,2.3-1.4,3.4-2.3c1-0.9,2.1-1.8,3-2.8c-0.8,0.2-1.6,0.3-2.4,0.3
		C166.1,203.6,165.5,203.3,165.1,202.9z"/>
	<path class="st0" d="M228.6,195.2c0.8-0.3,1.4-0.3,1.9-0.2c0.5,0.2,0.7,0.7,0.8,1.5c-1.7,3.3-3.6,6.3-5.6,9s-4.2,4.9-6.5,6.8
		c-2.3,1.8-4.7,3.2-7.2,4.1c-2.5,0.9-5.2,1.2-7.9,1.1c-2.5-0.2-4.8-0.9-6.6-2.2c-1.9-1.3-3.1-3.1-3.7-5.4l-2.8,5.5l-4.7,9.1
		c-0.2,0.3-0.5,1-1,2.1c-0.5,1-1,2.2-1.6,3.5s-1.1,2.6-1.6,4c-0.5,1.3-0.8,2.4-0.9,3.3c-0.9-0.3-1.7-0.8-2.5-1.3s-1.5-1.1-2.1-1.7
		c-0.6-0.7-1.1-1.3-1.4-2c-0.3-0.7-0.5-1.4-0.3-2.2c0.3-1.5,0.8-2.9,1.5-4.4c0.7-1.4,1.4-2.8,2-4.1c1.7-3.6,3.5-7.1,5.4-10.5
		c1.9-3.5,3.8-6.9,5.6-10.5c2.2-4,4.2-8.1,6.2-12.1c2-4.1,3.9-8.2,5.7-12.5c0.1-0.2,0.6-0.3,1.4-0.3c0.8-0.1,1.6,0.1,2.5,0.3
		c0.8,0.3,1.5,0.8,2,1.5s0.4,1.9-0.1,3.4l-1.5,3.8c1.1-1.2,2.3-2.4,3.6-3.4s2.7-1.9,4.2-2.6c1.1-0.5,2.5-0.8,4-0.7
		c1.5,0,2.8,0.4,3.7,1.2c1,0.8,1.7,1.8,2,3s0.5,2.5,0.6,3.8c0.2,2.7-0.3,5.4-1.4,8.2c-1.1,2.8-2.3,5.4-3.6,8
		c-0.8,1.7-1.8,3.3-2.8,4.9c-1,1.6-2.1,3-3.4,4.5c1.7-0.4,3.3-1.1,4.9-2.3c1.6-1.1,3-2.4,4.4-3.9s2.6-3.1,3.7-4.9
		C226.6,198.8,227.7,197,228.6,195.2z M196.2,204.9c0.2,1.1,0.5,2,0.9,2.9s0.9,1.5,1.5,1.9s1.4,0.5,2.2,0.3s1.8-0.9,2.8-2
		c2.4-2.5,4.5-5.4,6.1-8.7c1.6-3.2,2.9-6.5,3.8-9.9c0.1-0.3,0.2-0.9,0.4-1.6c0.1-0.7,0.2-1.4,0.2-2.1c0-0.7-0.1-1.3-0.3-1.8
		s-0.6-0.7-1.1-0.7c-0.7,0.1-1.4,0.3-2.2,0.7s-1.5,0.9-2.3,1.5s-1.5,1.2-2.2,2c-0.7,0.7-1.3,1.3-1.8,1.9c-0.2,0.2-0.4,0.4-0.6,0.6
		c-0.2,0.2-0.3,0.4-0.5,0.6l-3.3,7.1L196.2,204.9z"/>
	<path class="st0" d="M264.9,195.2c0.8-0.3,1.4-0.3,1.9-0.2c0.5,0.2,0.7,0.7,0.9,1.5c-1.7,3.3-3.6,6.3-5.6,9s-4.2,4.9-6.5,6.8
		c-2.3,1.8-4.7,3.2-7.2,4.1c-2.5,0.9-5.2,1.2-7.9,1.1c-2.5-0.2-4.8-0.9-6.6-2.2c-1.9-1.3-3.1-3.1-3.7-5.4l-2.8,5.5l-4.7,9.1
		c-0.2,0.3-0.5,1-1,2.1c-0.5,1-1,2.2-1.6,3.5s-1.1,2.6-1.6,4c-0.5,1.3-0.8,2.4-0.9,3.3c-0.9-0.3-1.7-0.8-2.5-1.3s-1.5-1.1-2.1-1.7
		c-0.6-0.7-1.1-1.3-1.4-2c-0.3-0.7-0.5-1.4-0.3-2.2c0.3-1.5,0.8-2.9,1.5-4.4c0.7-1.4,1.4-2.8,2-4.1c1.7-3.6,3.5-7.1,5.4-10.5
		c1.9-3.5,3.8-6.9,5.6-10.5c2.2-4,4.2-8.1,6.2-12.1c2-4.1,3.9-8.2,5.7-12.5c0.1-0.2,0.6-0.3,1.4-0.3c0.8-0.1,1.6,0.1,2.5,0.3
		c0.8,0.3,1.5,0.8,2,1.5s0.4,1.9-0.1,3.4l-1.5,3.8c1.1-1.2,2.3-2.4,3.6-3.4s2.7-1.9,4.2-2.6c1.1-0.5,2.5-0.8,4-0.7
		c1.5,0,2.8,0.4,3.7,1.2c1,0.8,1.7,1.8,2,3s0.5,2.5,0.6,3.8c0.2,2.7-0.3,5.4-1.4,8.2s-2.3,5.4-3.6,8c-0.9,1.7-1.8,3.3-2.8,4.9
		c-1,1.6-2.1,3-3.4,4.5c1.7-0.4,3.3-1.1,4.9-2.3c1.6-1.1,3-2.4,4.4-3.9s2.6-3.1,3.7-4.9C262.9,198.8,264,197,264.9,195.2z
		 M232.5,204.9c0.2,1.1,0.5,2,0.9,2.9s0.9,1.5,1.5,1.9s1.4,0.5,2.2,0.3c0.9-0.2,1.8-0.9,2.8-2c2.4-2.5,4.5-5.4,6.1-8.7
		c1.6-3.2,2.9-6.5,3.8-9.9c0.1-0.3,0.2-0.9,0.4-1.6c0.1-0.7,0.2-1.4,0.2-2.1c0-0.7-0.1-1.3-0.3-1.8s-0.6-0.7-1.1-0.7
		c-0.7,0.1-1.4,0.3-2.2,0.7s-1.5,0.9-2.3,1.5s-1.5,1.2-2.2,2c-0.7,0.7-1.3,1.3-1.8,1.9c-0.2,0.2-0.4,0.4-0.6,0.6
		c-0.2,0.2-0.3,0.4-0.5,0.6l-3.3,7.1L232.5,204.9z"/>
	<path class="st0" d="M297.7,156.7c0.5,0,0.9,0.1,1.4,0.3c0.5-0.4,1-0.5,1.6-0.3s1.1,0.5,1.4,0.8c0.4,0.5,0.6,1,0.7,1.7
		s0.1,1.3,0,1.9c-0.1,2-0.6,3.9-1.6,5.9c-0.9,1.9-1.9,3.7-2.9,5.4c-1.1,2-2.4,3.9-3.8,5.7s-2.8,3.6-4.4,5.4c-1.8,2-3.6,3.9-5.5,5.8
		c-1.9,1.9-3.9,3.7-5.9,5.4c-0.6,0.5-1.2,0.9-1.8,1.4c-0.6,0.5-1.1,0.9-1.7,1.4c-0.2,0.1-0.3,0.3-0.5,0.5s-0.4,0.4-0.6,0.5
		c-0.3,0.8-0.6,1.6-0.8,2.3c-0.3,0.7-0.5,1.5-0.8,2.3c-0.3,1.2-0.6,2.5-0.7,3.9s0,2.6,0.4,3.7c0.4,1,1.1,1.7,2.3,2
		c1.1,0.3,2.7-0.1,4.7-1.3c1.1-0.6,2.4-1.5,3.7-2.6c1.3-1.1,2.7-2.4,4-3.7c1.3-1.4,2.6-2.9,3.8-4.5c1.2-1.6,2.3-3.3,3.1-4.9
		c0.7-0.3,1.3-0.3,1.8-0.2c0.5,0.2,0.8,0.7,0.9,1.5c-0.9,1.6-1.8,3.3-3,5.1c-1.1,1.8-2.4,3.5-3.8,5.2s-2.9,3.3-4.5,4.8
		s-3.4,2.9-5.2,4.1c-2.2,1.4-4.3,2.2-6.5,2.5s-4.1,0-5.8-0.8s-3.1-2.2-4.1-4.1c-1-1.9-1.5-4.3-1.4-7.4c0.1-1.9,0.3-3.7,0.8-5.6
		c0.5-1.9,1-3.7,1.7-5.5s1.5-3.5,2.4-5.2s1.8-3.3,2.7-4.8c2-3.5,4.2-6.9,6.4-10.3c2.2-3.4,4.7-6.6,7.5-9.5c1.1-1.2,2.3-2.3,3.5-3.4
		c1.2-1,2.5-2,4-2.8c1-0.6,2-1.1,3-1.6C295.5,156.9,296.6,156.7,297.7,156.7z M277.9,190.5c1.3-1.2,2.6-2.4,3.8-3.7
		c1.2-1.3,2.5-2.6,3.7-4c1.5-1.8,3-3.7,4.4-5.6c1.4-1.9,2.8-3.9,4.1-5.9c1-1.4,1.8-2.8,2.6-4.3c0.8-1.4,1.4-3,1.9-4.6
		c-1,1-2.1,1.9-3.1,2.9s-2.1,2-3,3.1c-2.2,2.7-4.2,5.5-6.1,8.4s-3.7,5.8-5.5,8.8L277.9,190.5z"/>
	<path class="st0" d="M335.7,178.3c-1.1,2-2.1,3.9-3.1,5.6c-0.8,1.5-1.6,2.9-2.3,4.3c-0.8,1.4-1.3,2.3-1.6,2.8
		c-2.7,5.2-5.2,10.4-7.3,15.9c-2.2,5.4-4.3,11-6.5,16.7l3.8,1.2c1,0.3,2.1,0.6,3.4,0.9c1.2,0.3,2.4,0.4,3.5,0.6
		c1.2,0.1,2.2,0,3.1-0.3s1.8-0.8,2.6-1.4c-0.5,1.8-1.3,3.5-2.5,4.9c-1.2,1.5-2.6,2.7-4.2,3.6c-1.7,0.9-3.5,1.4-5.3,1.5
		s-3.7,0-5.5-0.3l-2.9-0.6c-1,2.4-2.1,4.7-3.3,6.8c-1.2,2.2-2.8,4.2-4.6,6c-1.8,1.7-3.8,3.1-6,4.2s-4.6,1.7-7.1,1.7
		c-2.7,0-5.2-0.7-7.5-2c-2.3-1.4-4.1-3.2-5.4-5.5c-1.2-2.2-1.9-4.5-2-7s0.4-4.9,1.3-7.2s2.2-4.3,3.9-6.2c1.7-1.8,3.7-3.1,6-4
		c2.9-1.1,6.1-1.5,9.4-1.2s6.5,0.8,9.5,1.5h0.1c0.7-2.2,1.5-4.4,2.3-6.6c0.8-2.2,1.6-4.3,2.5-6.5l-1,1.4c-0.7,1.1-1.5,2.2-2.4,3.4
		s-1.8,2.2-2.9,3.1c-1,0.9-2.2,1.4-3.4,1.7c-1.2,0.3-2.6,0.1-4.2-0.7c-2.6-1.2-4.2-2.9-4.9-5.3c-0.7-2.3-0.7-4.9-0.2-7.8
		c0.6-3.2,1.7-6.3,3.2-9.2s3.2-5.7,5.1-8.5c0.8-1.2,1.8-2.5,3-3.9s2.5-2.5,3.8-3.1c0.9-0.5,2.1-0.6,3.6-0.6c1.5,0.1,3.1,0.7,4.9,1.8
		c-1,1.4-2.3,3.2-3.8,5.6c-1.5,2.4-3,4.9-4.5,7.5s-2.8,5.3-4,7.9c-1.1,2.6-1.8,4.8-2,6.6c-0.1,0.7,0,1.3,0.3,1.8s0.6,0.8,1.1,0.9
		c0.5,0.1,1.2,0,2-0.5c0.8-0.4,1.8-1.2,2.9-2.4c1.8-1.9,3.3-3.9,4.7-5.9c1.4-2.1,2.7-4.2,4-6.4c0.8-1.8,1.7-3.6,2.7-5.5
		s2.1-3.7,3.3-5.3c1.2-1.6,2.5-3.1,3.8-4.3c1.4-1.2,2.8-2.1,4.3-2.5c1-0.3,1.8-0.4,2.5-0.3c0.7,0.1,1.4,0.2,2,0.3
		C334.6,177.9,335.2,178.1,335.7,178.3z M293.9,244.9c2.2-1.6,3.8-3.7,4.9-6.2s2.1-5,2.9-7.5V231c-1.6-0.5-3.3-1-4.9-1.4
		s-3.2-0.7-4.9-0.8c-1.8-0.1-3.6,0.1-5.4,0.7c-1.8,0.6-3.3,1.6-4.6,3.1c-1.1,1.4-1.8,3-2.1,4.8c-0.3,1.8,0,3.5,0.9,5.1
		c0.7,1.1,1.5,2,2.6,2.7c1,0.7,2.2,1.1,3.4,1.3c1.2,0.2,2.5,0.2,3.7-0.1C291.7,246.1,292.9,245.6,293.9,244.9z"/>
</g>
<g>
	<path class="st0" d="M468.3,34.8l42.8-7.7c0.1,0,0.2,0,0.4,0c0.1,0,0.3,0,0.4,0.1l39.5,18.2c0.5,0.3,0.7,0.7,0.7,1.2
		c-0.1,0.6-0.4,0.9-1,1l-12.7,2.3c1.7,3.3,2.4,7.5,2.1,12.6c1.5,1.1,2.1,2.6,1.9,4.4c-0.2,1.7-1.1,2.9-2.6,3.7l0.1,16.2
		c0,0.3-0.1,0.6-0.4,0.9c-0.3,0.2-0.6,0.3-0.9,0.3l-7.1-0.9c-0.4,0-0.6-0.2-0.8-0.5s-0.3-0.6-0.2-1l4.2-15.6
		c-1.3-1.1-1.8-2.5-1.6-4.2c0.2-1.8,1.2-3,2.8-3.7c0.2-2.5,0-4.7-0.4-6.7s-1.1-3.5-2.1-4.4l-24.9,4.5c-0.1,0-0.2,0-0.4,0
		c-0.1,0-0.3,0-0.4-0.1L468,37.1c-0.5-0.3-0.7-0.7-0.7-1.2C467.4,35.3,467.7,34.9,468.3,34.8z M505.6,59.5c0.5,0.2,1.1,0.4,1.7,0.5
		s1.2,0.1,1.8,0l21.9-4l-0.8,11.7c-0.1,1.7-1.3,3.1-3.6,4.3c-2.3,1.2-5.3,2-9.1,2.3c-3.8,0.4-7.8,0.3-12-0.2
		c-4.3-0.5-8.2-1.5-11.7-2.8s-6.3-2.8-8.2-4.5c-1.9-1.7-2.7-3.4-2.4-5.1l2.1-11.5L505.6,59.5z"/>
</g>
</svg>
