<?xml version="1.0" encoding="utf-8"?>
<!-- Generator: Adobe Illustrator 20.1.0, SVG Export Plug-In . SVG Version: 6.00 Build 0)  -->
<svg version="1.1" id="Layer_1" xmlns="http://www.w3.org/2000/svg" xmlns:xlink="http://www.w3.org/1999/xlink" x="0px" y="0px"
	 viewBox="0 0 632 281" style="enable-background:new 0 0 632 281;" xml:space="preserve">
<style type="text/css">
	.st0{fill:none;stroke:#1A1A1A;stroke-width:2;stroke-miterlimit:10;}
	.st1{fill:#1A1A1A;}
	.st2{fill:none;stroke:#1A1A1A;stroke-width:3;stroke-miterlimit:10;}
	.st3{fill:none;stroke:#1A1A1A;stroke-width:4;stroke-miterlimit:10;}
	.st4{fill:#ED1C24;}
</style>
<circle class="st0" cx="62.4" cy="98.9" r="10.3"/>
<circle class="st0" cx="62.4" cy="98.9" r="16.9"/>
<circle class="st0" cx="62.4" cy="98.9" r="22.6"/>
<circle class="st0" cx="62.4" cy="98.9" r="27.8"/>
<circle class="st0" cx="119.3" cy="98.9" r="10.3"/>
<circle class="st0" cx="119.3" cy="98.9" r="16.9"/>
<circle class="st0" cx="119.3" cy="98.9" r="22.6"/>
<circle class="st0" cx="119.3" cy="98.9" r="27.8"/>
<circle class="st1" cx="62.4" cy="98.9" r="4.6"/>
<circle class="st1" cx="119.3" cy="98.9" r="4.6"/>
<path class="st2" d="M43.5,148.1c0,0,25.3,21.2,50.5-0.1c0,0,20.9,23.2,52.3,0"/>
<path class="st2" d="M50.7,163.8c0,0,22.5,21.2,46.3-0.1c0,0,19.7,23.2,49.3,0"/>
<path class="st2" d="M60.5,180.4c0,0,20.3,21.2,41.6-0.1c0,0,17.7,23.2,44.2,0"/>
<path class="st2" d="M82.4,118.6c0,0,4.3,11.1,8.3,12.7c0,0,3.6,0.3,8.7-12.7"/>
<path class="st3" d="M34.8,94.6l-0.3-37.1c0,0,13.7-2,27.3,8.1c0,0,26.7-19.5,57.6,0c0,0,12.4-11.1,27.7-7.8l-0.8,157.6
	C31.6,222.4,34.9,94.2,34.9,94.2"/>
<g>
	<path class="st1" d="M242.5,93.7h-22.2v-7.8c0-4.9-0.2-7.9-0.6-9.2c-0.4-1.2-1.4-1.8-3-1.8c-1.4,0-2.3,0.5-2.8,1.6
		s-0.7,3.8-0.7,8.1v41c0,3.8,0.2,6.4,0.7,7.6c0.5,1.2,1.5,1.8,3,1.8c1.6,0,2.7-0.7,3.3-2.1s0.9-4,0.9-8v-10.1h-4.5v-13h26v45.8h-14
		l-2.1-6.1c-1.5,2.6-3.4,4.6-5.7,5.9c-2.3,1.3-5,2-8.2,2c-3.7,0-7.2-0.9-10.5-2.7s-5.7-4.1-7.4-6.7c-1.7-2.7-2.7-5.5-3.2-8.4
		c-0.4-2.9-0.6-7.3-0.6-13.2V93c0-8.2,0.4-14.1,1.3-17.8c0.9-3.7,3.4-7.1,7.6-10.2s9.6-4.6,16.2-4.6c6.5,0,11.9,1.3,16.2,4
		c4.3,2.7,7.1,5.8,8.4,9.5s2,9,2,16L242.5,93.7L242.5,93.7z"/>
	<path class="st1" d="M251.1,62.2h37v17.1h-14.8v16.2h13.9v16.2h-13.9v18.8h16.3v17.1h-38.5V62.2z"/>
	<path class="st1" d="M346.7,112.2c0,8.6-0.2,14.7-0.6,18.2c-0.4,3.6-1.7,6.8-3.8,9.8c-2.1,3-5,5.2-8.6,6.8s-7.8,2.4-12.7,2.4
		c-4.6,0-8.7-0.7-12.3-2.2s-6.6-3.7-8.8-6.7c-2.2-3-3.5-6.2-4-9.8c-0.4-3.5-0.6-9.7-0.6-18.5V97.6c0-8.6,0.2-14.7,0.6-18.2
		c0.4-3.6,1.7-6.8,3.8-9.8c2.1-3,5-5.2,8.6-6.8c3.6-1.6,7.8-2.4,12.7-2.4c4.6,0,8.7,0.7,12.3,2.2c3.6,1.5,6.6,3.7,8.8,6.7
		c2.2,3,3.5,6.2,4,9.8c0.4,3.5,0.6,9.7,0.6,18.5V112.2z M324.5,84.2c0-4-0.2-6.5-0.7-7.6c-0.4-1.1-1.3-1.7-2.7-1.7
		c-1.2,0-2,0.4-2.7,1.3c-0.6,0.9-0.9,3.5-0.9,7.9V124c0,5,0.2,8,0.6,9.2s1.3,1.7,2.8,1.7s2.5-0.7,2.9-2s0.6-4.5,0.6-9.5V84.2H324.5z
		"/>
	<path class="st1" d="M355,62.2h15.7c10.5,0,17.6,0.4,21.3,1.2c3.7,0.8,6.7,2.9,9.1,6.2c2.3,3.3,3.5,8.6,3.5,15.9
		c0,6.6-0.8,11.1-2.5,13.4c-1.7,2.3-4.9,3.7-9.8,4.1c4.4,1.1,7.3,2.5,8.9,4.4c1.5,1.8,2.5,3.5,2.8,5s0.6,5.7,0.6,12.6v22.5H384
		v-28.4c0-4.6-0.4-7.4-1.1-8.5s-2.6-1.6-5.7-1.6v38.5H355V62.2z M377.2,76.8v19c2.5,0,4.2-0.3,5.2-1s1.5-2.9,1.5-6.7v-4.7
		c0-2.7-0.5-4.5-1.5-5.3C381.5,77.3,379.7,76.8,377.2,76.8z"/>
	<path class="st1" d="M464.1,93.7h-22.2v-7.8c0-4.9-0.2-7.9-0.6-9.2c-0.4-1.2-1.4-1.8-3-1.8c-1.4,0-2.3,0.5-2.8,1.6
		s-0.7,3.8-0.7,8.1v41c0,3.8,0.2,6.4,0.7,7.6s1.5,1.8,3,1.8c1.6,0,2.7-0.7,3.3-2.1s0.9-4,0.9-8v-10.1h-4.5v-13h26v45.8h-14l-2.1-6.1
		c-1.5,2.6-3.4,4.6-5.7,5.9s-5,2-8.2,2c-3.7,0-7.2-0.9-10.5-2.7s-5.7-4.1-7.4-6.7c-1.7-2.7-2.7-5.5-3.2-8.4
		c-0.4-2.9-0.6-7.3-0.6-13.2V93c0-8.2,0.4-14.1,1.3-17.8s3.4-7.1,7.6-10.2s9.6-4.6,16.2-4.6c6.5,0,11.9,1.3,16.2,4s7.1,5.8,8.4,9.5
		c1.3,3.7,2,9,2,16L464.1,93.7L464.1,93.7z"/>
	<path class="st1" d="M494.9,62.2v85.4h-22.2V62.2C472.7,62.2,494.9,62.2,494.9,62.2z"/>
	<path class="st1" d="M542.1,62.2l12.7,85.4h-22.7l-1.2-15.3H523l-1.3,15.3h-23L510,62.2C510,62.2,542.1,62.2,542.1,62.2z
		 M530.4,117.1c-1.1-9.7-2.3-21.6-3.4-35.9c-2.3,16.3-3.7,28.3-4.3,35.9H530.4z"/>
</g>
<g>
	<path class="st4" d="M213,178.6c-0.6,0.9-1.4,2-2.3,3.3c-0.9,1.4-1.8,2.8-2.8,4.4c-1,1.6-1.9,3.2-2.8,4.9s-1.8,3.3-2.5,4.8
		c-1.5,3.2-2.7,5.8-3.6,8s-1.1,3.5-0.7,4.2c0.2,0.3,0.5,0.4,0.9,0.4s0.9-0.1,1.4-0.3s1-0.4,1.4-0.6s0.7-0.4,0.9-0.6
		c1.2-0.8,2.4-1.7,3.3-2.8c1-1,1.9-2.1,2.7-3.3c0.8-1.1,1.6-2.2,2.3-3.4c0.7-1.2,1.4-2.4,2-3.5c0.7-0.2,1.3-0.2,1.7,0
		c0.5,0.2,0.8,0.6,1,1.4c-0.8,1.5-1.6,2.9-2.3,4.3c-0.7,1.4-1.6,2.8-2.6,4.2c-0.9,1.4-1.9,2.7-2.8,3.9c-1,1.2-2.1,2.4-3.2,3.6
		c-1.1,1.1-2.3,2-3.5,2.8c-1.3,0.8-2.7,1.2-4.3,1.1c-1.6,0-3-0.5-4.3-1.4c-1.2-0.9-2.2-2.1-2.7-3.6c-0.3-0.7-0.5-1.4-0.6-2.3
		c-0.9,1.3-1.9,2.5-2.9,3.6s-2.2,2-3.5,2.7c-1.8,1-3.7,1.4-5.7,1.3c-2-0.2-3.7-0.9-5.2-2.3c-1.4-1.3-2.4-2.8-2.9-4.6
		c-0.5-1.8-0.8-3.6-0.8-5.4c0.1-2.3,0.4-4.5,1.1-6.7c0.7-2.2,1.6-4.3,2.7-6.4s2.4-4,3.8-5.7c1.4-1.8,3-3.4,4.6-4.9s3.4-2.7,5.4-3.6
		c2-0.9,4.1-1.3,6.2-1.2s3.9,0.8,5.5,1.9c1.6,1.2,2.7,2.7,3.5,4.6c0.7-0.8,1.5-1.5,2.3-2.2c0.9-0.7,1.8-1.1,2.8-1.5s2.1-0.6,3.3-0.5
		C211.3,177.6,212.3,177.9,213,178.6z M186.1,201.9c2.6-1.8,4.8-4.1,6.9-7c2-2.8,3.4-5.8,4-9c0.3-1.2,0.3-2.4-0.1-3.5
		c-0.3-1.2-1.2-1.9-2.6-2.1c-1.1-0.2-2.2,0.1-3.1,0.7c-1,0.6-1.8,1.3-2.6,2c-2.4,2.4-4.4,5.1-5.9,8.2c-1.5,3.1-2.6,6.2-3.4,9.5
		c-0.7,3.3-0.6,5.5,0.5,6.5c1,1,2.5,1.1,4.3,0.1c1.2-0.6,2.3-1.4,3.4-2.3c1-0.9,2.1-1.8,3-2.8c-0.8,0.2-1.6,0.3-2.4,0.3
		C187.1,202.6,186.5,202.3,186.1,201.9z"/>
	<path class="st4" d="M249.6,194.2c0.8-0.3,1.4-0.3,1.9-0.2c0.5,0.2,0.7,0.7,0.8,1.5c-1.7,3.3-3.6,6.3-5.6,9s-4.2,4.9-6.5,6.8
		c-2.3,1.8-4.7,3.2-7.2,4.1s-5.2,1.2-7.9,1.1c-2.5-0.2-4.8-0.9-6.6-2.2c-1.9-1.3-3.1-3.1-3.7-5.4l-2.8,5.5l-4.7,9.1
		c-0.2,0.3-0.5,1-1,2.1c-0.5,1-1,2.2-1.6,3.5s-1.1,2.6-1.6,4c-0.5,1.3-0.8,2.4-0.9,3.3c-0.8-0.3-1.7-0.8-2.5-1.3s-1.5-1.1-2.1-1.7
		c-0.6-0.7-1.1-1.3-1.4-2s-0.5-1.4-0.3-2.2c0.3-1.5,0.8-2.9,1.5-4.4c0.7-1.4,1.4-2.8,2-4.1c1.7-3.6,3.5-7.1,5.4-10.5
		c1.9-3.5,3.8-6.9,5.6-10.5c2.2-4,4.2-8.1,6.2-12.1c2-4.1,3.9-8.2,5.7-12.5c0.1-0.2,0.6-0.3,1.4-0.3c0.8-0.1,1.6,0.1,2.5,0.3
		c0.8,0.3,1.5,0.8,2,1.5s0.4,1.9-0.1,3.4l-1.5,3.8c1.1-1.2,2.3-2.4,3.6-3.4c1.3-1,2.7-1.9,4.2-2.6c1.1-0.5,2.5-0.8,4-0.7
		c1.5,0,2.8,0.4,3.7,1.2c1,0.8,1.7,1.8,2,3s0.5,2.5,0.6,3.8c0.2,2.7-0.3,5.4-1.4,8.2s-2.3,5.4-3.6,8c-0.8,1.7-1.8,3.3-2.8,4.9
		s-2.1,3-3.4,4.5c1.7-0.4,3.3-1.1,4.9-2.3c1.6-1.1,3-2.4,4.4-3.9s2.6-3.1,3.7-4.9C247.6,197.8,248.7,196,249.6,194.2z M217.2,203.9
		c0.2,1.1,0.5,2,0.8,2.9c0.4,0.9,0.9,1.5,1.5,1.9s1.4,0.5,2.2,0.3c0.8-0.2,1.8-0.9,2.8-2c2.4-2.5,4.5-5.4,6.1-8.7
		c1.6-3.2,2.9-6.5,3.8-9.9c0.1-0.3,0.2-0.9,0.4-1.6c0.1-0.7,0.2-1.4,0.2-2.1c0-0.7-0.1-1.3-0.3-1.8c-0.2-0.5-0.6-0.7-1.1-0.7
		c-0.7,0.1-1.4,0.3-2.2,0.7c-0.8,0.4-1.5,0.9-2.3,1.5s-1.5,1.2-2.2,2c-0.7,0.7-1.3,1.3-1.8,1.9c-0.2,0.2-0.4,0.4-0.6,0.6
		c-0.2,0.2-0.3,0.4-0.5,0.6l-3.3,7.1L217.2,203.9z"/>
	<path class="st4" d="M285.9,194.2c0.8-0.3,1.4-0.3,1.9-0.2c0.5,0.2,0.7,0.7,0.8,1.5c-1.7,3.3-3.6,6.3-5.6,9s-4.2,4.9-6.5,6.8
		c-2.3,1.8-4.7,3.2-7.2,4.1s-5.2,1.2-7.9,1.1c-2.5-0.2-4.8-0.9-6.6-2.2c-1.9-1.3-3.1-3.1-3.7-5.4l-2.8,5.5l-4.7,9.1
		c-0.2,0.3-0.5,1-1,2.1c-0.5,1-1,2.2-1.6,3.5s-1.1,2.6-1.6,4c-0.5,1.3-0.8,2.4-0.9,3.3c-0.8-0.3-1.7-0.8-2.5-1.3s-1.5-1.1-2.1-1.7
		c-0.6-0.7-1.1-1.3-1.4-2s-0.5-1.4-0.3-2.2c0.3-1.5,0.8-2.9,1.5-4.4c0.7-1.4,1.4-2.8,2-4.1c1.7-3.6,3.5-7.1,5.4-10.5
		c1.9-3.5,3.8-6.9,5.6-10.5c2.2-4,4.2-8.1,6.2-12.1c2-4.1,3.9-8.2,5.7-12.5c0.1-0.2,0.6-0.3,1.4-0.3c0.8-0.1,1.6,0.1,2.5,0.3
		c0.8,0.3,1.5,0.8,2,1.5s0.4,1.9-0.1,3.4l-1.5,3.8c1.1-1.2,2.3-2.4,3.6-3.4c1.3-1,2.7-1.9,4.2-2.6c1.1-0.5,2.5-0.8,4-0.7
		c1.5,0,2.8,0.4,3.7,1.2c1,0.8,1.7,1.8,2,3s0.5,2.5,0.6,3.8c0.2,2.7-0.3,5.4-1.4,8.2s-2.3,5.4-3.6,8c-0.8,1.7-1.8,3.3-2.8,4.9
		s-2.1,3-3.4,4.5c1.7-0.4,3.3-1.1,4.9-2.3c1.6-1.1,3-2.4,4.4-3.9s2.6-3.1,3.7-4.9C283.9,197.8,285,196,285.9,194.2z M253.5,203.9
		c0.2,1.1,0.5,2,0.8,2.9c0.4,0.9,0.9,1.5,1.5,1.9s1.4,0.5,2.2,0.3c0.8-0.2,1.8-0.9,2.8-2c2.4-2.5,4.5-5.4,6.1-8.7
		c1.6-3.2,2.9-6.5,3.8-9.9c0.1-0.3,0.2-0.9,0.4-1.6c0.1-0.7,0.2-1.4,0.2-2.1c0-0.7-0.1-1.3-0.3-1.8c-0.2-0.5-0.6-0.7-1.1-0.7
		c-0.7,0.1-1.4,0.3-2.2,0.7c-0.8,0.4-1.5,0.9-2.3,1.5s-1.5,1.2-2.2,2c-0.7,0.7-1.3,1.3-1.8,1.9c-0.2,0.2-0.4,0.4-0.6,0.6
		c-0.2,0.2-0.3,0.4-0.5,0.6l-3.3,7.1L253.5,203.9z"/>
	<path class="st4" d="M318.7,155.7c0.5,0,0.9,0.1,1.4,0.3c0.5-0.4,1-0.5,1.6-0.3s1.1,0.5,1.4,0.8c0.4,0.5,0.6,1,0.7,1.7
		s0.1,1.3,0,1.9c-0.1,2-0.6,3.9-1.6,5.9c-0.9,1.9-1.9,3.7-2.9,5.4c-1.1,2-2.4,3.9-3.8,5.7s-2.8,3.6-4.4,5.4c-1.8,2-3.6,3.9-5.5,5.8
		c-1.9,1.9-3.9,3.7-5.9,5.4c-0.6,0.5-1.2,0.9-1.8,1.4c-0.6,0.5-1.1,0.9-1.7,1.4c-0.2,0.1-0.3,0.3-0.5,0.5s-0.4,0.4-0.6,0.5
		c-0.3,0.8-0.6,1.6-0.8,2.3c-0.3,0.7-0.5,1.5-0.8,2.3c-0.3,1.2-0.6,2.5-0.7,3.9s0,2.6,0.4,3.7c0.4,1,1.1,1.7,2.3,2
		c1.1,0.3,2.7-0.1,4.7-1.3c1.1-0.6,2.4-1.5,3.7-2.6c1.3-1.1,2.7-2.4,4-3.7c1.3-1.4,2.6-2.9,3.8-4.5c1.2-1.6,2.3-3.3,3.1-4.9
		c0.7-0.3,1.3-0.3,1.8-0.2c0.5,0.2,0.8,0.7,0.9,1.5c-0.8,1.6-1.8,3.3-3,5.1c-1.1,1.8-2.4,3.5-3.8,5.2s-2.9,3.3-4.5,4.8
		s-3.4,2.9-5.2,4.1c-2.2,1.4-4.3,2.2-6.5,2.5s-4.1,0-5.8-0.8c-1.7-0.8-3.1-2.2-4.1-4.1s-1.5-4.3-1.4-7.4c0.1-1.9,0.3-3.7,0.8-5.6
		s1-3.7,1.7-5.5s1.5-3.5,2.4-5.2s1.8-3.3,2.7-4.8c2-3.5,4.2-6.9,6.4-10.3c2.2-3.4,4.7-6.6,7.5-9.5c1.1-1.2,2.3-2.3,3.5-3.4
		c1.2-1,2.5-2,4-2.8c1-0.6,2-1.1,3-1.6C316.5,155.9,317.6,155.7,318.7,155.7z M298.9,189.5c1.3-1.2,2.6-2.4,3.8-3.7
		c1.2-1.3,2.5-2.6,3.7-4c1.5-1.8,3-3.7,4.4-5.6c1.4-1.9,2.8-3.9,4.1-5.9c1-1.4,1.8-2.8,2.6-4.3s1.4-3,1.9-4.6c-1,1-2.1,1.9-3.1,2.9
		s-2.1,2-3,3.1c-2.2,2.7-4.2,5.5-6.1,8.4s-3.7,5.8-5.5,8.8L298.9,189.5z"/>
	<path class="st4" d="M356.7,177.3c-1.1,2-2.1,3.9-3.1,5.6c-0.8,1.5-1.6,2.9-2.3,4.3c-0.8,1.4-1.3,2.3-1.6,2.8
		c-2.7,5.2-5.2,10.4-7.3,15.9c-2.2,5.4-4.3,11-6.5,16.7l3.8,1.2c1,0.3,2.1,0.6,3.4,0.9c1.2,0.3,2.4,0.4,3.5,0.6
		c1.2,0.1,2.2,0,3.1-0.3s1.8-0.8,2.6-1.4c-0.5,1.8-1.3,3.5-2.5,4.9c-1.2,1.5-2.6,2.7-4.2,3.6c-1.7,0.9-3.5,1.4-5.3,1.5
		s-3.7,0-5.5-0.3l-2.9-0.6c-1,2.4-2.1,4.7-3.3,6.8c-1.2,2.2-2.8,4.2-4.6,6c-1.8,1.7-3.8,3.1-6,4.2s-4.6,1.7-7.1,1.7
		c-2.7,0-5.2-0.7-7.5-2c-2.3-1.4-4.1-3.2-5.4-5.5c-1.2-2.2-1.9-4.5-2-7s0.4-4.9,1.3-7.2c0.9-2.3,2.2-4.3,3.9-6.2
		c1.7-1.8,3.7-3.1,6-4c2.9-1.1,6.1-1.5,9.4-1.2s6.5,0.8,9.5,1.5h0.1c0.7-2.2,1.5-4.4,2.3-6.6s1.6-4.3,2.5-6.5l-1,1.4
		c-0.7,1.1-1.5,2.2-2.4,3.4c-0.9,1.2-1.8,2.2-2.9,3.1c-1,0.9-2.2,1.4-3.4,1.7c-1.2,0.3-2.6,0.1-4.2-0.7c-2.6-1.2-4.2-2.9-4.9-5.3
		c-0.7-2.3-0.7-4.9-0.2-7.8c0.6-3.2,1.7-6.3,3.2-9.2s3.2-5.7,5.1-8.5c0.8-1.2,1.8-2.5,3-3.9s2.5-2.5,3.8-3.1
		c0.9-0.5,2.1-0.6,3.6-0.6c1.5,0.1,3.1,0.7,4.9,1.8c-1,1.4-2.3,3.2-3.8,5.6c-1.5,2.4-3,4.9-4.5,7.5s-2.8,5.3-4,7.9
		c-1.1,2.6-1.8,4.8-2,6.6c-0.1,0.7,0,1.3,0.3,1.8s0.6,0.8,1.1,0.9s1.2,0,2-0.5c0.8-0.4,1.8-1.2,2.9-2.4c1.8-1.9,3.3-3.9,4.7-5.9
		c1.4-2.1,2.7-4.2,4-6.4c0.8-1.8,1.7-3.6,2.7-5.5s2.1-3.7,3.3-5.3c1.2-1.6,2.5-3.1,3.8-4.3c1.4-1.2,2.8-2.1,4.3-2.5
		c1-0.3,1.8-0.4,2.5-0.3c0.7,0.1,1.4,0.2,2,0.3C355.6,176.9,356.2,177.1,356.7,177.3z M314.9,243.9c2.2-1.6,3.8-3.7,4.9-6.2
		s2.1-5,2.9-7.5V230c-1.6-0.5-3.3-1-4.9-1.4s-3.2-0.7-4.9-0.8c-1.8-0.1-3.6,0.1-5.4,0.7s-3.3,1.6-4.6,3.1c-1.1,1.4-1.8,3-2.1,4.8
		c-0.3,1.8,0,3.5,0.9,5.1c0.7,1.1,1.5,2,2.6,2.7c1,0.7,2.2,1.1,3.4,1.3c1.2,0.2,2.5,0.2,3.7-0.1
		C312.7,245.1,313.9,244.6,314.9,243.9z"/>
</g>
<g>
	<path class="st1" d="M489.3,33.7l42.8-7.7c0.1,0,0.2,0,0.4,0c0.1,0,0.3,0,0.4,0.1l39.5,18.2c0.5,0.3,0.7,0.7,0.7,1.2
		c-0.1,0.6-0.4,0.9-1,1l-12.7,2.3c1.7,3.3,2.4,7.5,2.1,12.6c1.5,1.1,2.1,2.6,1.9,4.4c-0.2,1.7-1.1,2.9-2.6,3.7l0.1,16.2
		c0,0.3-0.1,0.6-0.4,0.9c-0.3,0.2-0.6,0.3-0.9,0.3l-7.1-0.9c-0.4,0-0.6-0.2-0.8-0.5s-0.3-0.6-0.2-1l4.2-15.6
		c-1.3-1.1-1.8-2.5-1.6-4.2c0.2-1.8,1.2-3,2.8-3.7c0.2-2.5,0-4.7-0.4-6.7s-1.1-3.5-2.1-4.4l-24.9,4.5c-0.1,0-0.2,0-0.4,0
		c-0.1,0-0.3,0-0.4-0.1L489,36c-0.5-0.3-0.7-0.7-0.7-1.2C488.4,34.2,488.7,33.9,489.3,33.7z M526.6,58.5c0.5,0.2,1.1,0.4,1.7,0.5
		c0.6,0.1,1.2,0.1,1.8,0l21.9-4l-0.8,11.7c-0.1,1.7-1.3,3.1-3.6,4.3c-2.3,1.2-5.3,2-9.1,2.3c-3.8,0.4-7.8,0.3-12-0.2
		c-4.3-0.5-8.2-1.5-11.7-2.8s-6.3-2.8-8.2-4.5s-2.7-3.4-2.4-5.1l2.1-11.5L526.6,58.5z"/>
</g>
</svg>
