<?xml version="1.0" encoding="utf-8"?>
<!-- Generator: Adobe Illustrator 21.0.2, SVG Export Plug-In . SVG Version: 6.00 Build 0)  -->
<svg version="1.1" id="Layer_1" xmlns="http://www.w3.org/2000/svg" xmlns:xlink="http://www.w3.org/1999/xlink" x="0px" y="0px"
	 viewBox="0 0 696 406" style="enable-background:new 0 0 696 406;" xml:space="preserve">
<style type="text/css">
	.st0{fill:#1A1A1A;}
	.st1{fill:url(#SVGID_1_);}
	.st2{fill:url(#SVGID_2_);}
	.st3{fill:url(#SVGID_3_);}
	.st4{fill:#29ABE2;stroke:#000000;stroke-width:3;stroke-miterlimit:10;}
	.st5{fill:none;stroke:#FFFFFF;stroke-width:3;stroke-miterlimit:10;}
	.st6{fill:#FFFFFF;}
	.st7{fill:none;stroke:#FFFFFF;stroke-width:10;stroke-miterlimit:10;}
	.st8{fill:none;stroke:#1A1A1A;stroke-width:5;stroke-miterlimit:10;}
	.st9{fill:none;stroke:#1A1A1A;stroke-width:10;stroke-miterlimit:10;}
	.st10{fill:#F9F9F9;}
	.st11{fill:none;stroke:#29ABE2;stroke-width:5;stroke-miterlimit:10;}
	.st12{fill:#29ABE2;}
	.st13{fill:none;stroke:#29ABE2;stroke-width:10;stroke-miterlimit:10;}
	.st14{fill:none;stroke:#1A1A1A;stroke-width:2;stroke-miterlimit:10;}
	.st15{fill:none;stroke:#1A1A1A;stroke-width:3;stroke-miterlimit:10;}
	.st16{fill:none;stroke:#1A1A1A;stroke-width:4;stroke-miterlimit:10;}
	.st17{fill:#ED1C24;}
	.st18{fill:none;stroke:#FFFFFF;stroke-width:2;stroke-miterlimit:10;}
	.st19{fill:none;stroke:#FFFFFF;stroke-width:4;stroke-miterlimit:10;}
</style>
<circle class="st14" cx="126.4" cy="156.9" r="10.3"/>
<circle class="st14" cx="126.4" cy="156.9" r="16.9"/>
<circle class="st14" cx="126.4" cy="156.9" r="22.6"/>
<circle class="st14" cx="126.4" cy="156.9" r="27.8"/>
<circle class="st14" cx="183.3" cy="156.9" r="10.3"/>
<circle class="st14" cx="183.3" cy="156.9" r="16.9"/>
<circle class="st14" cx="183.3" cy="156.9" r="22.6"/>
<circle class="st14" cx="183.3" cy="156.9" r="27.8"/>
<circle class="st0" cx="126.4" cy="156.9" r="4.6"/>
<circle class="st0" cx="183.3" cy="156.9" r="4.6"/>
<path class="st15" d="M107.5,206.1c0,0,25.3,21.2,50.5-0.1c0,0,20.9,23.2,52.3,0"/>
<path class="st15" d="M114.7,221.8c0,0,22.5,21.2,46.3-0.1c0,0,19.7,23.2,49.3,0"/>
<path class="st15" d="M124.5,238.4c0,0,20.3,21.2,41.6-0.1c0,0,17.7,23.2,44.2,0"/>
<path class="st15" d="M146.4,176.6c0,0,4.3,11.1,8.3,12.7c0,0,3.6,0.3,8.7-12.7"/>
<path class="st16" d="M98.8,152.6l-0.3-37.1c0,0,13.7-2,27.3,8.1c0,0,26.7-19.5,57.6,0c0,0,12.4-11.1,27.7-7.8l-0.8,157.6
	c-114.7,7-111.4-121.2-111.4-121.2"/>
<g>
	<path class="st0" d="M306.5,151.7h-22.2v-7.8c0-4.9-0.2-7.9-0.6-9.2c-0.4-1.2-1.4-1.8-3-1.8c-1.4,0-2.3,0.5-2.8,1.6
		c-0.5,1.1-0.7,3.8-0.7,8.1v41c0,3.8,0.2,6.4,0.7,7.6c0.5,1.2,1.5,1.8,3,1.8c1.6,0,2.7-0.7,3.3-2.1s0.9-4,0.9-8v-10.1h-4.5v-13h26
		v45.8h-14l-2.1-6.1c-1.5,2.6-3.4,4.6-5.7,5.9c-2.3,1.3-5,2-8.2,2c-3.7,0-7.2-0.9-10.5-2.7c-3.3-1.8-5.7-4.1-7.4-6.7
		c-1.7-2.7-2.7-5.5-3.2-8.4c-0.4-2.9-0.6-7.3-0.6-13.2V151c0-8.2,0.4-14.1,1.3-17.8c0.9-3.7,3.4-7.1,7.6-10.2
		c4.2-3.1,9.6-4.6,16.2-4.6c6.5,0,11.9,1.3,16.2,4c4.3,2.7,7.1,5.8,8.4,9.5c1.3,3.7,2,9,2,16V151.7z"/>
	<path class="st0" d="M315.1,120.2h37v17.1h-14.8v16.2h13.9v16.2h-13.9v18.8h16.3v17.1h-38.5V120.2z"/>
	<path class="st0" d="M410.7,170.2c0,8.6-0.2,14.7-0.6,18.2c-0.4,3.6-1.7,6.8-3.8,9.8c-2.1,3-5,5.2-8.6,6.8
		c-3.6,1.6-7.8,2.4-12.7,2.4c-4.6,0-8.7-0.7-12.3-2.2s-6.6-3.7-8.8-6.7c-2.2-3-3.5-6.2-4-9.8c-0.4-3.5-0.6-9.7-0.6-18.5v-14.6
		c0-8.6,0.2-14.7,0.6-18.2c0.4-3.6,1.7-6.8,3.8-9.8c2.1-3,5-5.2,8.6-6.8c3.6-1.6,7.8-2.4,12.7-2.4c4.6,0,8.7,0.7,12.3,2.2
		c3.6,1.5,6.6,3.7,8.8,6.7c2.2,3,3.5,6.2,4,9.8c0.4,3.5,0.6,9.7,0.6,18.5V170.2z M388.5,142.2c0-4-0.2-6.5-0.7-7.6
		c-0.4-1.1-1.3-1.7-2.7-1.7c-1.2,0-2,0.4-2.7,1.3c-0.6,0.9-0.9,3.5-0.9,7.9V182c0,5,0.2,8,0.6,9.2c0.4,1.2,1.3,1.7,2.8,1.7
		c1.5,0,2.5-0.7,2.9-2c0.4-1.3,0.6-4.5,0.6-9.5V142.2z"/>
	<path class="st0" d="M419,120.2h15.7c10.5,0,17.6,0.4,21.3,1.2c3.7,0.8,6.7,2.9,9.1,6.2c2.3,3.3,3.5,8.6,3.5,15.9
		c0,6.6-0.8,11.1-2.5,13.4c-1.7,2.3-4.9,3.7-9.8,4.1c4.4,1.1,7.3,2.5,8.9,4.4c1.5,1.8,2.5,3.5,2.8,5s0.6,5.7,0.6,12.6v22.5h-20.6
		v-28.4c0-4.6-0.4-7.4-1.1-8.5c-0.7-1.1-2.6-1.6-5.7-1.6v38.5H419V120.2z M441.2,134.8v19c2.5,0,4.2-0.3,5.2-1s1.5-2.9,1.5-6.7v-4.7
		c0-2.7-0.5-4.5-1.5-5.3C445.5,135.3,443.7,134.8,441.2,134.8z"/>
	<path class="st0" d="M528.1,151.7h-22.2v-7.8c0-4.9-0.2-7.9-0.6-9.2c-0.4-1.2-1.4-1.8-3-1.8c-1.4,0-2.3,0.5-2.8,1.6
		s-0.7,3.8-0.7,8.1v41c0,3.8,0.2,6.4,0.7,7.6s1.5,1.8,3,1.8c1.6,0,2.7-0.7,3.3-2.1s0.9-4,0.9-8v-10.1h-4.5v-13h26v45.8h-14l-2.1-6.1
		c-1.5,2.6-3.4,4.6-5.7,5.9s-5,2-8.2,2c-3.7,0-7.2-0.9-10.5-2.7s-5.7-4.1-7.4-6.7c-1.7-2.7-2.7-5.5-3.2-8.4
		c-0.4-2.9-0.6-7.3-0.6-13.2V151c0-8.2,0.4-14.1,1.3-17.8c0.9-3.7,3.4-7.1,7.6-10.2c4.2-3.1,9.6-4.6,16.2-4.6c6.5,0,11.9,1.3,16.2,4
		c4.3,2.7,7.1,5.8,8.4,9.5c1.3,3.7,2,9,2,16V151.7z"/>
	<path class="st0" d="M558.9,120.2v85.4h-22.2v-85.4H558.9z"/>
	<path class="st0" d="M606.1,120.2l12.7,85.4h-22.7l-1.2-15.3H587l-1.3,15.3h-23l11.3-85.4H606.1z M594.4,175.1
		c-1.1-9.7-2.3-21.6-3.4-35.9c-2.3,16.3-3.7,28.3-4.3,35.9H594.4z"/>
</g>
<g>
	<path class="st17" d="M277,236.6c-0.6,0.9-1.4,2-2.3,3.3c-0.9,1.4-1.8,2.8-2.8,4.4c-1,1.6-1.9,3.2-2.8,4.9
		c-0.9,1.7-1.8,3.3-2.5,4.8c-1.5,3.2-2.7,5.8-3.6,8c-0.9,2.2-1.1,3.5-0.7,4.2c0.2,0.3,0.5,0.4,0.9,0.4c0.4,0,0.9-0.1,1.4-0.3
		s1-0.4,1.4-0.6s0.7-0.4,0.9-0.6c1.2-0.8,2.4-1.7,3.3-2.8c1-1,1.9-2.1,2.7-3.3c0.8-1.1,1.6-2.2,2.3-3.4c0.7-1.2,1.4-2.4,2-3.5
		c0.7-0.2,1.3-0.2,1.7,0c0.5,0.2,0.8,0.6,1,1.4c-0.8,1.5-1.6,2.9-2.3,4.3c-0.7,1.4-1.6,2.8-2.6,4.2c-0.9,1.4-1.9,2.7-2.8,3.9
		c-1,1.2-2.1,2.4-3.2,3.6c-1.1,1.1-2.3,2-3.5,2.8c-1.3,0.8-2.7,1.2-4.3,1.1c-1.6,0-3-0.5-4.3-1.4c-1.2-0.9-2.2-2.1-2.7-3.6
		c-0.3-0.7-0.5-1.4-0.6-2.3c-0.9,1.3-1.9,2.5-2.9,3.6c-1,1.1-2.2,2-3.5,2.7c-1.8,1-3.7,1.4-5.7,1.3c-2-0.2-3.7-0.9-5.2-2.3
		c-1.4-1.3-2.4-2.8-2.9-4.6c-0.5-1.8-0.8-3.6-0.8-5.4c0.1-2.3,0.4-4.5,1.1-6.7c0.7-2.2,1.6-4.3,2.7-6.4s2.4-4,3.8-5.7
		c1.4-1.8,3-3.4,4.6-4.9c1.6-1.5,3.4-2.7,5.4-3.6c2-0.9,4.1-1.3,6.2-1.2c2.1,0.1,3.9,0.8,5.5,1.9c1.6,1.2,2.7,2.7,3.5,4.6
		c0.7-0.8,1.5-1.5,2.3-2.2c0.9-0.7,1.8-1.1,2.8-1.5c1-0.4,2.1-0.6,3.3-0.5C275.3,235.6,276.3,235.9,277,236.6z M250.1,259.9
		c2.6-1.8,4.8-4.1,6.9-7c2-2.8,3.4-5.8,4-9c0.3-1.2,0.3-2.4-0.1-3.5c-0.3-1.2-1.2-1.9-2.6-2.1c-1.1-0.2-2.2,0.1-3.1,0.7
		c-1,0.6-1.8,1.3-2.6,2c-2.4,2.4-4.4,5.1-5.9,8.2c-1.5,3.1-2.6,6.2-3.4,9.5c-0.7,3.3-0.6,5.5,0.5,6.5c1,1,2.5,1.1,4.3,0.1
		c1.2-0.6,2.3-1.4,3.4-2.3c1-0.9,2.1-1.8,3-2.8c-0.8,0.2-1.6,0.3-2.4,0.3C251.1,260.6,250.5,260.3,250.1,259.9z"/>
	<path class="st17" d="M313.6,252.2c0.8-0.3,1.4-0.3,1.9-0.2c0.5,0.2,0.7,0.7,0.8,1.5c-1.7,3.3-3.6,6.3-5.6,9
		c-2,2.7-4.2,4.9-6.5,6.8c-2.3,1.8-4.7,3.2-7.2,4.1c-2.5,0.9-5.2,1.2-7.9,1.1c-2.5-0.2-4.8-0.9-6.6-2.2c-1.9-1.3-3.1-3.1-3.7-5.4
		l-2.8,5.5l-4.7,9.1c-0.2,0.3-0.5,1-1,2.1c-0.5,1-1,2.2-1.6,3.5c-0.6,1.3-1.1,2.6-1.6,4c-0.5,1.3-0.8,2.4-0.9,3.3
		c-0.8-0.3-1.7-0.8-2.5-1.3c-0.8-0.5-1.5-1.1-2.1-1.7c-0.6-0.7-1.1-1.3-1.4-2c-0.3-0.7-0.5-1.4-0.3-2.2c0.3-1.5,0.8-2.9,1.5-4.4
		c0.7-1.4,1.4-2.8,2-4.1c1.7-3.6,3.5-7.1,5.4-10.5c1.9-3.5,3.8-6.9,5.6-10.5c2.2-4,4.2-8.1,6.2-12.1c2-4.1,3.9-8.2,5.7-12.5
		c0.1-0.2,0.6-0.3,1.4-0.3c0.8-0.1,1.6,0.1,2.5,0.3c0.8,0.3,1.5,0.8,2,1.5c0.5,0.7,0.4,1.9-0.1,3.4l-1.5,3.8
		c1.1-1.2,2.3-2.4,3.6-3.4c1.3-1,2.7-1.9,4.2-2.6c1.1-0.5,2.5-0.8,4-0.7c1.5,0,2.8,0.4,3.7,1.2c1,0.8,1.7,1.8,2,3
		c0.3,1.2,0.5,2.5,0.6,3.8c0.2,2.7-0.3,5.4-1.4,8.2c-1.1,2.8-2.3,5.4-3.6,8c-0.8,1.7-1.8,3.3-2.8,4.9c-1,1.6-2.1,3-3.4,4.5
		c1.7-0.4,3.3-1.1,4.9-2.3c1.6-1.1,3-2.4,4.4-3.9c1.4-1.5,2.6-3.1,3.7-4.9C311.6,255.8,312.7,254,313.6,252.2z M281.2,261.9
		c0.2,1.1,0.5,2,0.8,2.9c0.4,0.9,0.9,1.5,1.5,1.9c0.6,0.4,1.4,0.5,2.2,0.3c0.8-0.2,1.8-0.9,2.8-2c2.4-2.5,4.5-5.4,6.1-8.7
		c1.6-3.2,2.9-6.5,3.8-9.9c0.1-0.3,0.2-0.9,0.4-1.6c0.1-0.7,0.2-1.4,0.2-2.1c0-0.7-0.1-1.3-0.3-1.8c-0.2-0.5-0.6-0.7-1.1-0.7
		c-0.7,0.1-1.4,0.3-2.2,0.7c-0.8,0.4-1.5,0.9-2.3,1.5c-0.8,0.6-1.5,1.2-2.2,2c-0.7,0.7-1.3,1.3-1.8,1.9c-0.2,0.2-0.4,0.4-0.6,0.6
		c-0.2,0.2-0.3,0.4-0.5,0.6l-3.3,7.1L281.2,261.9z"/>
	<path class="st17" d="M349.9,252.2c0.8-0.3,1.4-0.3,1.9-0.2c0.5,0.2,0.7,0.7,0.8,1.5c-1.7,3.3-3.6,6.3-5.6,9
		c-2,2.7-4.2,4.9-6.5,6.8c-2.3,1.8-4.7,3.2-7.2,4.1c-2.5,0.9-5.2,1.2-7.9,1.1c-2.5-0.2-4.8-0.9-6.6-2.2c-1.9-1.3-3.1-3.1-3.7-5.4
		l-2.8,5.5l-4.7,9.1c-0.2,0.3-0.5,1-1,2.1c-0.5,1-1,2.2-1.6,3.5c-0.6,1.3-1.1,2.6-1.6,4c-0.5,1.3-0.8,2.4-0.9,3.3
		c-0.8-0.3-1.7-0.8-2.5-1.3c-0.8-0.5-1.5-1.1-2.1-1.7c-0.6-0.7-1.1-1.3-1.4-2c-0.3-0.7-0.5-1.4-0.3-2.2c0.3-1.5,0.8-2.9,1.5-4.4
		c0.7-1.4,1.4-2.8,2-4.1c1.7-3.6,3.5-7.1,5.4-10.5c1.9-3.5,3.8-6.9,5.6-10.5c2.2-4,4.2-8.1,6.2-12.1c2-4.1,3.9-8.2,5.7-12.5
		c0.1-0.2,0.6-0.3,1.4-0.3c0.8-0.1,1.6,0.1,2.5,0.3c0.8,0.3,1.5,0.8,2,1.5c0.5,0.7,0.4,1.9-0.1,3.4l-1.5,3.8
		c1.1-1.2,2.3-2.4,3.6-3.4c1.3-1,2.7-1.9,4.2-2.6c1.1-0.5,2.5-0.8,4-0.7c1.5,0,2.8,0.4,3.7,1.2c1,0.8,1.7,1.8,2,3
		c0.3,1.2,0.5,2.5,0.6,3.8c0.2,2.7-0.3,5.4-1.4,8.2c-1.1,2.8-2.3,5.4-3.6,8c-0.8,1.7-1.8,3.3-2.8,4.9c-1,1.6-2.1,3-3.4,4.5
		c1.7-0.4,3.3-1.1,4.9-2.3c1.6-1.1,3-2.4,4.4-3.9c1.4-1.5,2.6-3.1,3.7-4.9C347.9,255.8,349,254,349.9,252.2z M317.5,261.9
		c0.2,1.1,0.5,2,0.8,2.9c0.4,0.9,0.9,1.5,1.5,1.9c0.6,0.4,1.4,0.5,2.2,0.3c0.8-0.2,1.8-0.9,2.8-2c2.4-2.5,4.5-5.4,6.1-8.7
		c1.6-3.2,2.9-6.5,3.8-9.9c0.1-0.3,0.2-0.9,0.4-1.6c0.1-0.7,0.2-1.4,0.2-2.1c0-0.7-0.1-1.3-0.3-1.8c-0.2-0.5-0.6-0.7-1.1-0.7
		c-0.7,0.1-1.4,0.3-2.2,0.7c-0.8,0.4-1.5,0.9-2.3,1.5c-0.8,0.6-1.5,1.2-2.2,2c-0.7,0.7-1.3,1.3-1.8,1.9c-0.2,0.2-0.4,0.4-0.6,0.6
		c-0.2,0.2-0.3,0.4-0.5,0.6l-3.3,7.1L317.5,261.9z"/>
	<path class="st17" d="M382.7,213.7c0.5,0,0.9,0.1,1.4,0.3c0.5-0.4,1-0.5,1.6-0.3c0.6,0.2,1.1,0.5,1.4,0.8c0.4,0.5,0.6,1,0.7,1.7
		c0.1,0.7,0.1,1.3,0,1.9c-0.1,2-0.6,3.9-1.6,5.9c-0.9,1.9-1.9,3.7-2.9,5.4c-1.1,2-2.4,3.9-3.8,5.7c-1.4,1.8-2.8,3.6-4.4,5.4
		c-1.8,2-3.6,3.9-5.5,5.8c-1.9,1.9-3.9,3.7-5.9,5.4c-0.6,0.5-1.2,0.9-1.8,1.4c-0.6,0.5-1.1,0.9-1.7,1.4c-0.2,0.1-0.3,0.3-0.5,0.5
		c-0.2,0.2-0.4,0.4-0.6,0.5c-0.3,0.8-0.6,1.6-0.8,2.3c-0.3,0.7-0.5,1.5-0.8,2.3c-0.3,1.2-0.6,2.5-0.7,3.9c-0.1,1.4,0,2.6,0.4,3.7
		c0.4,1,1.1,1.7,2.3,2c1.1,0.3,2.7-0.1,4.7-1.3c1.1-0.6,2.4-1.5,3.7-2.6c1.3-1.1,2.7-2.4,4-3.7c1.3-1.4,2.6-2.9,3.8-4.5
		c1.2-1.6,2.3-3.3,3.1-4.9c0.7-0.3,1.3-0.3,1.8-0.2c0.5,0.2,0.8,0.7,0.9,1.5c-0.8,1.6-1.8,3.3-3,5.1c-1.1,1.8-2.4,3.5-3.8,5.2
		c-1.4,1.7-2.9,3.3-4.5,4.8s-3.4,2.9-5.2,4.1c-2.2,1.4-4.3,2.2-6.5,2.5c-2.2,0.3-4.1,0-5.8-0.8c-1.7-0.8-3.1-2.2-4.1-4.1
		c-1-1.9-1.5-4.3-1.4-7.4c0.1-1.9,0.3-3.7,0.8-5.6c0.5-1.9,1-3.7,1.7-5.5c0.7-1.8,1.5-3.5,2.4-5.2c0.9-1.7,1.8-3.3,2.7-4.8
		c2-3.5,4.2-6.9,6.4-10.3c2.2-3.4,4.7-6.6,7.5-9.5c1.1-1.2,2.3-2.3,3.5-3.4c1.2-1,2.5-2,4-2.8c1-0.6,2-1.1,3-1.6
		C380.5,213.9,381.6,213.7,382.7,213.7z M362.9,247.5c1.3-1.2,2.6-2.4,3.8-3.7c1.2-1.3,2.5-2.6,3.7-4c1.5-1.8,3-3.7,4.4-5.6
		c1.4-1.9,2.8-3.9,4.1-5.9c1-1.4,1.8-2.8,2.6-4.3s1.4-3,1.9-4.6c-1,1-2.1,1.9-3.1,2.9c-1,1-2.1,2-3,3.1c-2.2,2.7-4.2,5.5-6.1,8.4
		c-1.9,2.9-3.7,5.8-5.5,8.8L362.9,247.5z"/>
	<path class="st17" d="M420.7,235.3c-1.1,2-2.1,3.9-3.1,5.6c-0.8,1.5-1.6,2.9-2.3,4.3c-0.8,1.4-1.3,2.3-1.6,2.8
		c-2.7,5.2-5.2,10.4-7.3,15.9c-2.2,5.4-4.3,11-6.5,16.7l3.8,1.2c1,0.3,2.1,0.6,3.4,0.9c1.2,0.3,2.4,0.4,3.5,0.6
		c1.2,0.1,2.2,0,3.1-0.3c0.9-0.3,1.8-0.8,2.6-1.4c-0.5,1.8-1.3,3.5-2.5,4.9c-1.2,1.5-2.6,2.7-4.2,3.6c-1.7,0.9-3.5,1.4-5.3,1.5
		c-1.8,0.1-3.7,0-5.5-0.3l-2.9-0.6c-1,2.4-2.1,4.7-3.3,6.8c-1.2,2.2-2.8,4.2-4.6,6c-1.8,1.7-3.8,3.1-6,4.2c-2.2,1.1-4.6,1.7-7.1,1.7
		c-2.7,0-5.2-0.7-7.5-2c-2.3-1.4-4.1-3.2-5.4-5.5c-1.2-2.2-1.9-4.5-2-7c-0.1-2.5,0.4-4.9,1.3-7.2c0.9-2.3,2.2-4.3,3.9-6.2
		c1.7-1.8,3.7-3.1,6-4c2.9-1.1,6.1-1.5,9.4-1.2c3.3,0.3,6.5,0.8,9.5,1.5h0.1c0.7-2.2,1.5-4.4,2.3-6.6c0.8-2.2,1.6-4.3,2.5-6.5
		l-1,1.4c-0.7,1.1-1.5,2.2-2.4,3.4c-0.9,1.2-1.8,2.2-2.9,3.1c-1,0.9-2.2,1.4-3.4,1.7c-1.2,0.3-2.6,0.1-4.2-0.7
		c-2.6-1.2-4.2-2.9-4.9-5.3c-0.7-2.3-0.7-4.9-0.2-7.8c0.6-3.2,1.7-6.3,3.2-9.2c1.5-2.9,3.2-5.7,5.1-8.5c0.8-1.2,1.8-2.5,3-3.9
		c1.2-1.4,2.5-2.5,3.8-3.1c0.9-0.5,2.1-0.6,3.6-0.6c1.5,0.1,3.1,0.7,4.9,1.8c-1,1.4-2.3,3.2-3.8,5.6c-1.5,2.4-3,4.9-4.5,7.5
		c-1.5,2.6-2.8,5.3-4,7.9c-1.1,2.6-1.8,4.8-2,6.6c-0.1,0.7,0,1.3,0.3,1.8c0.3,0.5,0.6,0.8,1.1,0.9c0.5,0.1,1.2,0,2-0.5
		c0.8-0.4,1.8-1.2,2.9-2.4c1.8-1.9,3.3-3.9,4.7-5.9c1.4-2.1,2.7-4.2,4-6.4c0.8-1.8,1.7-3.6,2.7-5.5c1-1.9,2.1-3.7,3.3-5.3
		c1.2-1.6,2.5-3.1,3.8-4.3c1.4-1.2,2.8-2.1,4.3-2.5c1-0.3,1.8-0.4,2.5-0.3c0.7,0.1,1.4,0.2,2,0.3
		C419.6,234.9,420.2,235.1,420.7,235.3z M378.9,301.9c2.2-1.6,3.8-3.7,4.9-6.2c1.1-2.5,2.1-5,2.9-7.5V288c-1.6-0.5-3.3-1-4.9-1.4
		c-1.6-0.4-3.2-0.7-4.9-0.8c-1.8-0.1-3.6,0.1-5.4,0.7c-1.8,0.6-3.3,1.6-4.6,3.1c-1.1,1.4-1.8,3-2.1,4.8c-0.3,1.8,0,3.5,0.9,5.1
		c0.7,1.1,1.5,2,2.6,2.7c1,0.7,2.2,1.1,3.4,1.3c1.2,0.2,2.5,0.2,3.7-0.1C376.7,303.1,377.9,302.6,378.9,301.9z"/>
</g>
<g>
	<path class="st0" d="M553.3,91.7l42.8-7.7c0.1,0,0.2,0,0.4,0c0.1,0,0.3,0,0.4,0.1l39.5,18.2c0.5,0.3,0.7,0.7,0.7,1.2
		c-0.1,0.6-0.4,0.9-1,1l-12.7,2.3c1.7,3.3,2.4,7.5,2.1,12.6c1.5,1.1,2.1,2.6,1.9,4.4c-0.2,1.7-1.1,2.9-2.6,3.7l0.1,16.2
		c0,0.3-0.1,0.6-0.4,0.9c-0.3,0.2-0.6,0.3-0.9,0.3l-7.1-0.9c-0.4,0-0.6-0.2-0.8-0.5c-0.2-0.3-0.3-0.6-0.2-1l4.2-15.6
		c-1.3-1.1-1.8-2.5-1.6-4.2c0.2-1.8,1.2-3,2.8-3.7c0.2-2.5,0-4.7-0.4-6.7c-0.4-2-1.1-3.5-2.1-4.4l-24.9,4.5c-0.1,0-0.2,0-0.4,0
		c-0.1,0-0.3,0-0.4-0.1L553,94c-0.5-0.3-0.7-0.7-0.7-1.2C552.4,92.2,552.7,91.9,553.3,91.7z M590.6,116.5c0.5,0.2,1.1,0.4,1.7,0.5
		c0.6,0.1,1.2,0.1,1.8,0l21.9-4l-0.8,11.7c-0.1,1.7-1.3,3.1-3.6,4.3c-2.3,1.2-5.3,2-9.1,2.3c-3.8,0.4-7.8,0.3-12-0.2
		c-4.3-0.5-8.2-1.5-11.7-2.8c-3.5-1.3-6.3-2.8-8.2-4.5c-1.9-1.7-2.7-3.4-2.4-5.1l2.1-11.5L590.6,116.5z"/>
</g>
</svg>
